<mxfile host="app.diagrams.net" modified="2022-08-25T02:10:44.610Z" agent="5.0 (Windows NT 10.0; Win64; x64) AppleWebKit/537.36 (KHTML, like Gecko) Chrome/104.0.5112.102 Safari/537.36 Edg/104.0.1293.63" etag="uVgnv38uNgFExWZsS8PC" version="20.2.4" type="github">
  <diagram id="3DSPcj4n7MCKJTRVredh" name="Página-1">
    <mxGraphModel dx="923" dy="402" grid="1" gridSize="10" guides="1" tooltips="1" connect="1" arrows="1" fold="1" page="1" pageScale="1" pageWidth="1169" pageHeight="827" math="0" shadow="0">
      <root>
        <mxCell id="0" />
        <mxCell id="1" parent="0" />
        <mxCell id="K4mOxKQrMV5fhllmKBj7-3" value="" style="edgeStyle=orthogonalEdgeStyle;rounded=0;orthogonalLoop=1;jettySize=auto;html=1;" edge="1" parent="1" source="K4mOxKQrMV5fhllmKBj7-1" target="K4mOxKQrMV5fhllmKBj7-2">
          <mxGeometry relative="1" as="geometry" />
        </mxCell>
        <mxCell id="K4mOxKQrMV5fhllmKBj7-1" value="Inicio" style="rounded=1;whiteSpace=wrap;html=1;arcSize=50;" vertex="1" parent="1">
          <mxGeometry x="540" y="30" width="120" height="60" as="geometry" />
        </mxCell>
        <mxCell id="K4mOxKQrMV5fhllmKBj7-5" value="" style="edgeStyle=orthogonalEdgeStyle;rounded=0;orthogonalLoop=1;jettySize=auto;html=1;" edge="1" parent="1" source="K4mOxKQrMV5fhllmKBj7-2" target="K4mOxKQrMV5fhllmKBj7-4">
          <mxGeometry relative="1" as="geometry" />
        </mxCell>
        <mxCell id="K4mOxKQrMV5fhllmKBj7-13" value="" style="edgeStyle=orthogonalEdgeStyle;rounded=0;orthogonalLoop=1;jettySize=auto;html=1;" edge="1" parent="1" source="K4mOxKQrMV5fhllmKBj7-2" target="K4mOxKQrMV5fhllmKBj7-12">
          <mxGeometry relative="1" as="geometry" />
        </mxCell>
        <mxCell id="K4mOxKQrMV5fhllmKBj7-2" value="Dizima periódica" style="shape=parallelogram;perimeter=parallelogramPerimeter;whiteSpace=wrap;html=1;fixedSize=1;rounded=1;arcSize=0;" vertex="1" parent="1">
          <mxGeometry x="485" y="130" width="230" height="60" as="geometry" />
        </mxCell>
        <mxCell id="K4mOxKQrMV5fhllmKBj7-7" value="" style="edgeStyle=orthogonalEdgeStyle;rounded=0;orthogonalLoop=1;jettySize=auto;html=1;" edge="1" parent="1" source="K4mOxKQrMV5fhllmKBj7-4">
          <mxGeometry relative="1" as="geometry">
            <mxPoint x="600" y="330" as="targetPoint" />
          </mxGeometry>
        </mxCell>
        <mxCell id="K4mOxKQrMV5fhllmKBj7-9" value="" style="edgeStyle=orthogonalEdgeStyle;rounded=0;orthogonalLoop=1;jettySize=auto;html=1;" edge="1" parent="1" source="K4mOxKQrMV5fhllmKBj7-4" target="K4mOxKQrMV5fhllmKBj7-8">
          <mxGeometry relative="1" as="geometry" />
        </mxCell>
        <mxCell id="K4mOxKQrMV5fhllmKBj7-4" value="x &amp;lt;- Dizima periódica&lt;br&gt;m &amp;lt;- 10x" style="rounded=1;whiteSpace=wrap;html=1;arcSize=0;" vertex="1" parent="1">
          <mxGeometry x="520" y="220" width="160" height="80" as="geometry" />
        </mxCell>
        <mxCell id="K4mOxKQrMV5fhllmKBj7-11" value="" style="edgeStyle=orthogonalEdgeStyle;rounded=0;orthogonalLoop=1;jettySize=auto;html=1;" edge="1" parent="1" source="K4mOxKQrMV5fhllmKBj7-8" target="K4mOxKQrMV5fhllmKBj7-10">
          <mxGeometry relative="1" as="geometry" />
        </mxCell>
        <mxCell id="K4mOxKQrMV5fhllmKBj7-8" value="t &amp;lt;- m - x&lt;br&gt;v &amp;lt;- (10x) - x&lt;br&gt;" style="rounded=1;whiteSpace=wrap;html=1;arcSize=0;" vertex="1" parent="1">
          <mxGeometry x="510" y="330" width="180" height="100" as="geometry" />
        </mxCell>
        <mxCell id="K4mOxKQrMV5fhllmKBj7-10" value="mostrar -&amp;gt; (t)/9" style="shape=document;whiteSpace=wrap;html=1;boundedLbl=1;rounded=1;arcSize=0;" vertex="1" parent="1">
          <mxGeometry x="530" y="490" width="140" height="100" as="geometry" />
        </mxCell>
        <mxCell id="K4mOxKQrMV5fhllmKBj7-12" value="" style="whiteSpace=wrap;html=1;rounded=1;arcSize=0;" vertex="1" parent="1">
          <mxGeometry x="840" y="220" width="130" height="80" as="geometry" />
        </mxCell>
      </root>
    </mxGraphModel>
  </diagram>
</mxfile>
